<?xml version="1.0" encoding="UTF-8"?>
<svg xmlns="http://www.w3.org/2000/svg" xmlns:xlink="http://www.w3.org/1999/xlink" width="450px" height="300px" viewBox="0 0 450 300" version="1.1">
<g id="surface1">
<rect x="0" y="0" width="450" height="300" style="fill:rgb(0%,21.960784%,57.647059%);fill-opacity:1;stroke:none;"/>
<path style=" stroke:none;fill-rule:nonzero;fill:rgb(100%,100%,100%);fill-opacity:1;" d="M 0 150 L 450 150 L 450 225 L 0 225 Z M 0 150 "/>
<path style=" stroke:none;fill-rule:nonzero;fill:rgb(81.176471%,12.54902%,15.294118%);fill-opacity:1;" d="M 0 175 L 450 175 L 450 200 L 0 200 Z M 0 175 "/>
<path style=" stroke:none;fill-rule:nonzero;fill:rgb(96.862745%,81.960784%,8.627451%);fill-opacity:1;" d="M 168.75 97.5 L 164.660156 111.765625 L 170.953125 114.082031 "/>
<path style=" stroke:none;fill-rule:nonzero;fill:rgb(96.862745%,81.960784%,8.627451%);fill-opacity:1;" d="M 168.75 97.5 L 172.839844 111.765625 L 166.546875 114.082031 "/>
<path style=" stroke:none;fill-rule:nonzero;fill:rgb(96.862745%,81.960784%,8.627451%);fill-opacity:1;" d="M 181.335938 107.863281 L 168.101562 107.863281 L 168.101562 115.363281 "/>
<path style=" stroke:none;fill-rule:nonzero;fill:rgb(96.862745%,81.960784%,8.627451%);fill-opacity:1;" d="M 181.335938 107.863281 L 170.628906 116.679688 L 166.738281 110.613281 "/>
<path style=" stroke:none;fill-rule:nonzero;fill:rgb(96.862745%,81.960784%,8.627451%);fill-opacity:1;" d="M 176.53125 124.636719 L 172.441406 110.371094 L 166.144531 112.6875 "/>
<path style=" stroke:none;fill-rule:nonzero;fill:rgb(96.862745%,81.960784%,8.627451%);fill-opacity:1;" d="M 176.53125 124.636719 L 165.820312 115.820312 L 169.710938 109.75 "/>
<path style=" stroke:none;fill-rule:nonzero;fill:rgb(96.862745%,81.960784%,8.627451%);fill-opacity:1;" d="M 160.96875 124.636719 L 171.679688 115.820312 L 167.789062 109.75 "/>
<path style=" stroke:none;fill-rule:nonzero;fill:rgb(96.862745%,81.960784%,8.627451%);fill-opacity:1;" d="M 160.96875 124.636719 L 165.058594 110.371094 L 171.355469 112.6875 "/>
<path style=" stroke:none;fill-rule:nonzero;fill:rgb(96.862745%,81.960784%,8.627451%);fill-opacity:1;" d="M 156.164062 107.863281 L 166.871094 116.679688 L 170.761719 110.613281 "/>
<path style=" stroke:none;fill-rule:nonzero;fill:rgb(96.862745%,81.960784%,8.627451%);fill-opacity:1;" d="M 156.164062 107.863281 L 169.398438 107.863281 L 169.398438 115.363281 "/>
<path style=" stroke:none;fill-rule:nonzero;fill:rgb(96.862745%,81.960784%,8.627451%);fill-opacity:1;" d="M 168.75 247.5 L 164.660156 261.765625 L 170.953125 264.082031 "/>
<path style=" stroke:none;fill-rule:nonzero;fill:rgb(96.862745%,81.960784%,8.627451%);fill-opacity:1;" d="M 168.75 247.5 L 172.839844 261.765625 L 166.546875 264.082031 "/>
<path style=" stroke:none;fill-rule:nonzero;fill:rgb(96.862745%,81.960784%,8.627451%);fill-opacity:1;" d="M 181.335938 257.863281 L 168.101562 257.863281 L 168.101562 265.363281 "/>
<path style=" stroke:none;fill-rule:nonzero;fill:rgb(96.862745%,81.960784%,8.627451%);fill-opacity:1;" d="M 181.335938 257.863281 L 170.628906 266.679688 L 166.738281 260.613281 "/>
<path style=" stroke:none;fill-rule:nonzero;fill:rgb(96.862745%,81.960784%,8.627451%);fill-opacity:1;" d="M 176.53125 274.636719 L 172.441406 260.371094 L 166.144531 262.6875 "/>
<path style=" stroke:none;fill-rule:nonzero;fill:rgb(96.862745%,81.960784%,8.627451%);fill-opacity:1;" d="M 176.53125 274.636719 L 165.820312 265.820312 L 169.710938 259.75 "/>
<path style=" stroke:none;fill-rule:nonzero;fill:rgb(96.862745%,81.960784%,8.627451%);fill-opacity:1;" d="M 160.96875 274.636719 L 171.679688 265.820312 L 167.789062 259.75 "/>
<path style=" stroke:none;fill-rule:nonzero;fill:rgb(96.862745%,81.960784%,8.627451%);fill-opacity:1;" d="M 160.96875 274.636719 L 165.058594 260.371094 L 171.355469 262.6875 "/>
<path style=" stroke:none;fill-rule:nonzero;fill:rgb(96.862745%,81.960784%,8.627451%);fill-opacity:1;" d="M 156.164062 257.863281 L 166.871094 266.679688 L 170.761719 260.613281 "/>
<path style=" stroke:none;fill-rule:nonzero;fill:rgb(96.862745%,81.960784%,8.627451%);fill-opacity:1;" d="M 156.164062 257.863281 L 169.398438 257.863281 L 169.398438 265.363281 "/>
<path style=" stroke:none;fill-rule:nonzero;fill:rgb(96.862745%,81.960784%,8.627451%);fill-opacity:1;" d="M 244.273438 159.6875 L 231.039062 159.6875 L 231.039062 167.1875 "/>
<path style=" stroke:none;fill-rule:nonzero;fill:rgb(96.862745%,81.960784%,8.627451%);fill-opacity:1;" d="M 244.273438 159.6875 L 233.566406 168.503906 L 229.679688 162.4375 "/>
<path style=" stroke:none;fill-rule:nonzero;fill:rgb(96.862745%,81.960784%,8.627451%);fill-opacity:1;" d="M 239.46875 176.457031 L 235.378906 162.191406 L 229.082031 164.511719 "/>
<path style=" stroke:none;fill-rule:nonzero;fill:rgb(96.862745%,81.960784%,8.627451%);fill-opacity:1;" d="M 239.46875 176.457031 L 228.757812 167.640625 L 232.648438 161.574219 "/>
<path style=" stroke:none;fill-rule:nonzero;fill:rgb(96.862745%,81.960784%,8.627451%);fill-opacity:1;" d="M 223.90625 176.457031 L 234.617188 167.640625 L 230.726562 161.574219 "/>
<path style=" stroke:none;fill-rule:nonzero;fill:rgb(96.862745%,81.960784%,8.627451%);fill-opacity:1;" d="M 223.90625 176.457031 L 227.996094 162.191406 L 234.292969 164.511719 "/>
<path style=" stroke:none;fill-rule:nonzero;fill:rgb(96.862745%,81.960784%,8.627451%);fill-opacity:1;" d="M 219.101562 159.6875 L 229.808594 168.503906 L 233.699219 162.4375 "/>
<path style=" stroke:none;fill-rule:nonzero;fill:rgb(96.862745%,81.960784%,8.627451%);fill-opacity:1;" d="M 219.101562 159.6875 L 232.335938 159.6875 L 232.335938 167.1875 "/>
<path style=" stroke:none;fill-rule:nonzero;fill:rgb(96.862745%,81.960784%,8.627451%);fill-opacity:1;" d="M 231.6875 149.324219 L 227.597656 163.589844 L 233.890625 165.90625 "/>
<path style=" stroke:none;fill-rule:nonzero;fill:rgb(96.862745%,81.960784%,8.627451%);fill-opacity:1;" d="M 231.6875 149.324219 L 235.777344 163.589844 L 229.484375 165.90625 "/>
<path style=" stroke:none;fill-rule:nonzero;fill:rgb(96.862745%,81.960784%,8.627451%);fill-opacity:1;" d="M 118.398438 206.042969 L 105.164062 206.042969 L 105.164062 213.542969 "/>
<path style=" stroke:none;fill-rule:nonzero;fill:rgb(96.862745%,81.960784%,8.627451%);fill-opacity:1;" d="M 118.398438 206.042969 L 107.691406 214.859375 L 103.800781 208.789062 "/>
<path style=" stroke:none;fill-rule:nonzero;fill:rgb(96.862745%,81.960784%,8.627451%);fill-opacity:1;" d="M 113.59375 222.8125 L 109.503906 208.546875 L 103.207031 210.863281 "/>
<path style=" stroke:none;fill-rule:nonzero;fill:rgb(96.862745%,81.960784%,8.627451%);fill-opacity:1;" d="M 113.59375 222.8125 L 102.882812 213.996094 L 106.773438 207.925781 "/>
<path style=" stroke:none;fill-rule:nonzero;fill:rgb(96.862745%,81.960784%,8.627451%);fill-opacity:1;" d="M 98.03125 222.8125 L 108.742188 213.996094 L 104.851562 207.925781 "/>
<path style=" stroke:none;fill-rule:nonzero;fill:rgb(96.862745%,81.960784%,8.627451%);fill-opacity:1;" d="M 98.03125 222.8125 L 102.121094 208.546875 L 108.417969 210.863281 "/>
<path style=" stroke:none;fill-rule:nonzero;fill:rgb(96.862745%,81.960784%,8.627451%);fill-opacity:1;" d="M 93.226562 206.042969 L 103.933594 214.859375 L 107.820312 208.789062 "/>
<path style=" stroke:none;fill-rule:nonzero;fill:rgb(96.862745%,81.960784%,8.627451%);fill-opacity:1;" d="M 93.226562 206.042969 L 106.460938 206.042969 L 106.460938 213.542969 "/>
<path style=" stroke:none;fill-rule:nonzero;fill:rgb(96.862745%,81.960784%,8.627451%);fill-opacity:1;" d="M 105.8125 195.675781 L 101.722656 209.941406 L 108.015625 212.257812 "/>
<path style=" stroke:none;fill-rule:nonzero;fill:rgb(96.862745%,81.960784%,8.627451%);fill-opacity:1;" d="M 105.8125 195.675781 L 109.902344 209.941406 L 103.609375 212.257812 "/>
<path style=" stroke:none;fill-rule:nonzero;fill:rgb(96.862745%,81.960784%,8.627451%);fill-opacity:1;" d="M 215.425781 260.3125 L 211.335938 246.046875 L 205.042969 248.363281 "/>
<path style=" stroke:none;fill-rule:nonzero;fill:rgb(96.862745%,81.960784%,8.627451%);fill-opacity:1;" d="M 215.425781 260.3125 L 204.71875 251.496094 L 208.609375 245.425781 "/>
<path style=" stroke:none;fill-rule:nonzero;fill:rgb(96.862745%,81.960784%,8.627451%);fill-opacity:1;" d="M 199.867188 260.3125 L 210.574219 251.496094 L 206.6875 245.425781 "/>
<path style=" stroke:none;fill-rule:nonzero;fill:rgb(96.862745%,81.960784%,8.627451%);fill-opacity:1;" d="M 199.867188 260.3125 L 203.957031 246.046875 L 210.25 248.363281 "/>
<path style=" stroke:none;fill-rule:nonzero;fill:rgb(96.862745%,81.960784%,8.627451%);fill-opacity:1;" d="M 195.058594 243.542969 L 205.769531 252.359375 L 209.65625 246.289062 "/>
<path style=" stroke:none;fill-rule:nonzero;fill:rgb(96.862745%,81.960784%,8.627451%);fill-opacity:1;" d="M 195.058594 243.542969 L 208.296875 243.542969 L 208.296875 251.042969 "/>
<path style=" stroke:none;fill-rule:nonzero;fill:rgb(96.862745%,81.960784%,8.627451%);fill-opacity:1;" d="M 207.648438 233.175781 L 203.558594 247.441406 L 209.851562 249.757812 "/>
<path style=" stroke:none;fill-rule:nonzero;fill:rgb(96.862745%,81.960784%,8.627451%);fill-opacity:1;" d="M 207.648438 233.175781 L 211.738281 247.441406 L 205.445312 249.757812 "/>
<path style=" stroke:none;fill-rule:nonzero;fill:rgb(96.862745%,81.960784%,8.627451%);fill-opacity:1;" d="M 220.234375 243.542969 L 207 243.542969 L 207 251.042969 "/>
<path style=" stroke:none;fill-rule:nonzero;fill:rgb(96.862745%,81.960784%,8.627451%);fill-opacity:1;" d="M 220.234375 243.542969 L 209.527344 252.359375 L 205.636719 246.289062 "/>
<path style=" stroke:none;fill-rule:nonzero;fill:rgb(96.862745%,81.960784%,8.627451%);fill-opacity:1;" d="M 137.632812 138.957031 L 133.542969 124.691406 L 127.25 127.011719 "/>
<path style=" stroke:none;fill-rule:nonzero;fill:rgb(96.862745%,81.960784%,8.627451%);fill-opacity:1;" d="M 137.632812 138.957031 L 126.925781 130.140625 L 130.8125 124.074219 "/>
<path style=" stroke:none;fill-rule:nonzero;fill:rgb(96.862745%,81.960784%,8.627451%);fill-opacity:1;" d="M 122.074219 138.957031 L 132.78125 130.140625 L 128.890625 124.074219 "/>
<path style=" stroke:none;fill-rule:nonzero;fill:rgb(96.862745%,81.960784%,8.627451%);fill-opacity:1;" d="M 122.074219 138.957031 L 126.164062 124.691406 L 132.457031 127.011719 "/>
<path style=" stroke:none;fill-rule:nonzero;fill:rgb(96.862745%,81.960784%,8.627451%);fill-opacity:1;" d="M 117.265625 122.1875 L 127.972656 131.003906 L 131.863281 124.9375 "/>
<path style=" stroke:none;fill-rule:nonzero;fill:rgb(96.862745%,81.960784%,8.627451%);fill-opacity:1;" d="M 117.265625 122.1875 L 130.5 122.1875 L 130.5 129.6875 "/>
<path style=" stroke:none;fill-rule:nonzero;fill:rgb(96.862745%,81.960784%,8.627451%);fill-opacity:1;" d="M 129.851562 111.824219 L 125.761719 126.089844 L 132.054688 128.40625 "/>
<path style=" stroke:none;fill-rule:nonzero;fill:rgb(96.862745%,81.960784%,8.627451%);fill-opacity:1;" d="M 129.851562 111.824219 L 133.941406 126.089844 L 127.648438 128.40625 "/>
<path style=" stroke:none;fill-rule:nonzero;fill:rgb(96.862745%,81.960784%,8.627451%);fill-opacity:1;" d="M 142.441406 122.1875 L 129.203125 122.1875 L 129.203125 129.6875 "/>
<path style=" stroke:none;fill-rule:nonzero;fill:rgb(96.862745%,81.960784%,8.627451%);fill-opacity:1;" d="M 142.441406 122.1875 L 131.730469 131.003906 L 127.84375 124.9375 "/>
<path style=" stroke:none;fill-rule:nonzero;fill:rgb(96.862745%,81.960784%,8.627451%);fill-opacity:1;" d="M 122.074219 260.3125 L 132.78125 251.496094 L 128.890625 245.425781 "/>
<path style=" stroke:none;fill-rule:nonzero;fill:rgb(96.862745%,81.960784%,8.627451%);fill-opacity:1;" d="M 122.074219 260.3125 L 126.164062 246.046875 L 132.457031 248.363281 "/>
<path style=" stroke:none;fill-rule:nonzero;fill:rgb(96.862745%,81.960784%,8.627451%);fill-opacity:1;" d="M 117.265625 243.542969 L 127.972656 252.359375 L 131.863281 246.289062 "/>
<path style=" stroke:none;fill-rule:nonzero;fill:rgb(96.862745%,81.960784%,8.627451%);fill-opacity:1;" d="M 117.265625 243.542969 L 130.5 243.542969 L 130.5 251.042969 "/>
<path style=" stroke:none;fill-rule:nonzero;fill:rgb(96.862745%,81.960784%,8.627451%);fill-opacity:1;" d="M 129.851562 233.175781 L 125.761719 247.441406 L 132.054688 249.757812 "/>
<path style=" stroke:none;fill-rule:nonzero;fill:rgb(96.862745%,81.960784%,8.627451%);fill-opacity:1;" d="M 129.851562 233.175781 L 133.941406 247.441406 L 127.648438 249.757812 "/>
<path style=" stroke:none;fill-rule:nonzero;fill:rgb(96.862745%,81.960784%,8.627451%);fill-opacity:1;" d="M 142.441406 243.542969 L 129.203125 243.542969 L 129.203125 251.042969 "/>
<path style=" stroke:none;fill-rule:nonzero;fill:rgb(96.862745%,81.960784%,8.627451%);fill-opacity:1;" d="M 142.441406 243.542969 L 131.730469 252.359375 L 127.84375 246.289062 "/>
<path style=" stroke:none;fill-rule:nonzero;fill:rgb(96.862745%,81.960784%,8.627451%);fill-opacity:1;" d="M 137.632812 260.3125 L 133.542969 246.046875 L 127.25 248.363281 "/>
<path style=" stroke:none;fill-rule:nonzero;fill:rgb(96.862745%,81.960784%,8.627451%);fill-opacity:1;" d="M 137.632812 260.3125 L 126.925781 251.496094 L 130.8125 245.425781 "/>
<path style=" stroke:none;fill-rule:nonzero;fill:rgb(96.862745%,81.960784%,8.627451%);fill-opacity:1;" d="M 199.867188 138.957031 L 210.574219 130.140625 L 206.6875 124.074219 "/>
<path style=" stroke:none;fill-rule:nonzero;fill:rgb(96.862745%,81.960784%,8.627451%);fill-opacity:1;" d="M 199.867188 138.957031 L 203.957031 124.691406 L 210.25 127.011719 "/>
<path style=" stroke:none;fill-rule:nonzero;fill:rgb(96.862745%,81.960784%,8.627451%);fill-opacity:1;" d="M 195.058594 122.1875 L 205.769531 131.003906 L 209.65625 124.9375 "/>
<path style=" stroke:none;fill-rule:nonzero;fill:rgb(96.862745%,81.960784%,8.627451%);fill-opacity:1;" d="M 195.058594 122.1875 L 208.296875 122.1875 L 208.296875 129.6875 "/>
<path style=" stroke:none;fill-rule:nonzero;fill:rgb(96.862745%,81.960784%,8.627451%);fill-opacity:1;" d="M 207.648438 111.824219 L 203.558594 126.089844 L 209.851562 128.40625 "/>
<path style=" stroke:none;fill-rule:nonzero;fill:rgb(96.862745%,81.960784%,8.627451%);fill-opacity:1;" d="M 207.648438 111.824219 L 211.738281 126.089844 L 205.445312 128.40625 "/>
<path style=" stroke:none;fill-rule:nonzero;fill:rgb(96.862745%,81.960784%,8.627451%);fill-opacity:1;" d="M 220.234375 122.1875 L 207 122.1875 L 207 129.6875 "/>
<path style=" stroke:none;fill-rule:nonzero;fill:rgb(96.862745%,81.960784%,8.627451%);fill-opacity:1;" d="M 220.234375 122.1875 L 209.527344 131.003906 L 205.636719 124.9375 "/>
<path style=" stroke:none;fill-rule:nonzero;fill:rgb(96.862745%,81.960784%,8.627451%);fill-opacity:1;" d="M 215.425781 138.957031 L 211.335938 124.691406 L 205.042969 127.011719 "/>
<path style=" stroke:none;fill-rule:nonzero;fill:rgb(96.862745%,81.960784%,8.627451%);fill-opacity:1;" d="M 215.425781 138.957031 L 204.71875 130.140625 L 208.609375 124.074219 "/>
<path style=" stroke:none;fill-rule:nonzero;fill:rgb(96.862745%,81.960784%,8.627451%);fill-opacity:1;" d="M 93.226562 159.6875 L 103.933594 168.503906 L 107.820312 162.4375 "/>
<path style=" stroke:none;fill-rule:nonzero;fill:rgb(96.862745%,81.960784%,8.627451%);fill-opacity:1;" d="M 93.226562 159.6875 L 106.460938 159.6875 L 106.460938 167.1875 "/>
<path style=" stroke:none;fill-rule:nonzero;fill:rgb(96.862745%,81.960784%,8.627451%);fill-opacity:1;" d="M 105.8125 149.324219 L 101.722656 163.589844 L 108.015625 165.90625 "/>
<path style=" stroke:none;fill-rule:nonzero;fill:rgb(96.862745%,81.960784%,8.627451%);fill-opacity:1;" d="M 105.8125 149.324219 L 109.902344 163.589844 L 103.609375 165.90625 "/>
<path style=" stroke:none;fill-rule:nonzero;fill:rgb(96.862745%,81.960784%,8.627451%);fill-opacity:1;" d="M 118.398438 159.6875 L 105.164062 159.6875 L 105.164062 167.1875 "/>
<path style=" stroke:none;fill-rule:nonzero;fill:rgb(96.862745%,81.960784%,8.627451%);fill-opacity:1;" d="M 118.398438 159.6875 L 107.691406 168.503906 L 103.800781 162.4375 "/>
<path style=" stroke:none;fill-rule:nonzero;fill:rgb(96.862745%,81.960784%,8.627451%);fill-opacity:1;" d="M 113.59375 176.457031 L 109.503906 162.191406 L 103.207031 164.511719 "/>
<path style=" stroke:none;fill-rule:nonzero;fill:rgb(96.862745%,81.960784%,8.627451%);fill-opacity:1;" d="M 113.59375 176.457031 L 102.882812 167.640625 L 106.773438 161.574219 "/>
<path style=" stroke:none;fill-rule:nonzero;fill:rgb(96.862745%,81.960784%,8.627451%);fill-opacity:1;" d="M 98.03125 176.457031 L 108.742188 167.640625 L 104.851562 161.574219 "/>
<path style=" stroke:none;fill-rule:nonzero;fill:rgb(96.862745%,81.960784%,8.627451%);fill-opacity:1;" d="M 98.03125 176.457031 L 102.121094 162.191406 L 108.417969 164.511719 "/>
<path style=" stroke:none;fill-rule:nonzero;fill:rgb(96.862745%,81.960784%,8.627451%);fill-opacity:1;" d="M 219.101562 206.042969 L 229.808594 214.859375 L 233.699219 208.789062 "/>
<path style=" stroke:none;fill-rule:nonzero;fill:rgb(96.862745%,81.960784%,8.627451%);fill-opacity:1;" d="M 219.101562 206.042969 L 232.335938 206.042969 L 232.335938 213.542969 "/>
<path style=" stroke:none;fill-rule:nonzero;fill:rgb(96.862745%,81.960784%,8.627451%);fill-opacity:1;" d="M 231.6875 195.675781 L 227.597656 209.941406 L 233.890625 212.257812 "/>
<path style=" stroke:none;fill-rule:nonzero;fill:rgb(96.862745%,81.960784%,8.627451%);fill-opacity:1;" d="M 231.6875 195.675781 L 235.777344 209.941406 L 229.484375 212.257812 "/>
<path style=" stroke:none;fill-rule:nonzero;fill:rgb(96.862745%,81.960784%,8.627451%);fill-opacity:1;" d="M 244.273438 206.042969 L 231.039062 206.042969 L 231.039062 213.542969 "/>
<path style=" stroke:none;fill-rule:nonzero;fill:rgb(96.862745%,81.960784%,8.627451%);fill-opacity:1;" d="M 244.273438 206.042969 L 233.566406 214.859375 L 229.679688 208.789062 "/>
<path style=" stroke:none;fill-rule:nonzero;fill:rgb(96.862745%,81.960784%,8.627451%);fill-opacity:1;" d="M 239.46875 222.8125 L 235.378906 208.546875 L 229.082031 210.863281 "/>
<path style=" stroke:none;fill-rule:nonzero;fill:rgb(96.862745%,81.960784%,8.627451%);fill-opacity:1;" d="M 239.46875 222.8125 L 228.757812 213.996094 L 232.648438 207.925781 "/>
<path style=" stroke:none;fill-rule:nonzero;fill:rgb(96.862745%,81.960784%,8.627451%);fill-opacity:1;" d="M 223.90625 222.8125 L 234.617188 213.996094 L 230.726562 207.925781 "/>
<path style=" stroke:none;fill-rule:nonzero;fill:rgb(96.862745%,81.960784%,8.627451%);fill-opacity:1;" d="M 223.90625 222.8125 L 227.996094 208.546875 L 234.292969 210.863281 "/>
</g>
</svg>
